<svg xmlns="http://www.w3.org/2000/svg" width="380" height="300"><style>rect{stroke-width:2}.hw{fill:#74ffb5;stroke:#008066}text{text-anchor:middle;color:#000;font-size:22px;font-family:Bitstream Vera Sans,sans-serif}line{stroke:#000;stroke-width:3;marker-start:url(#arrowStart);marker-end:url(#arrowEnd)}</style><defs><marker id="arrowEnd" markerWidth="4" refX="1" refY="1.5" orient="auto"><path d="M0 3l4-1.5L0 0l1 1.5z"/></marker><marker id="arrowStart" markerWidth="4" refX="3" refY="1.5" orient="auto"><path d="M4 3L0 1.5 4 0 3 1.5z"/></marker></defs><g id="hardware"><rect class="hw" x="15" y="203" width="100" height="80" rx="8" ry="8"/><rect class="hw" x="139" y="203" width="100" height="80" rx="8" ry="8"/><rect class="hw" x="263" y="203" width="100" height="80" rx="8" ry="8"/><text x="66" y="252">CPU</text><text x="190" y="252">Memory</text><text x="314" y="252">Devices</text></g><g id="kernel"><rect x="15" y="109" width="348" height="80" rx="8" ry="8" fill="#989dff" stroke="navy"/><text x="190" y="158">Kernel</text></g><g id="apps"><rect x="15" y="15" width="348" height="80" rx="8" ry="8" fill="#ff818a" stroke="red"/><text x="190" y="64">Applications</text></g><g id="arrows"><path d="M190 87v32M66 181v32M190 181v32M314 181v32"/></g></svg>